<?xml version="1.0" encoding="utf-8"?>
<!-- Generator: Adobe Illustrator 18.1.1, SVG Export Plug-In . SVG Version: 6.00 Build 0)  -->
<svg version="1.1" id="Layer_1" xmlns="http://www.w3.org/2000/svg" xmlns:xlink="http://www.w3.org/1999/xlink" x="0px" y="0px"
	 viewBox="0 0 16 16" enable-background="new 0 0 16 16" xml:space="preserve">
<path fill="#005485" d="M8,1C4.1,1,1,4.2,1,8s3.1,7,7,7c3.9,0,7-3.1,7-7S11.8,1,8,1z M12.8,5.2h-2.1c-0.2-0.9-0.5-1.7-1-2.5
	C11.1,3.2,12.2,4.1,12.8,5.2z M8,2.5c0.6,0.8,1,1.8,1.3,2.8H6.7C7,4.2,7.4,3.3,8,2.5z M2.6,9.4C2.5,8.9,2.4,8.5,2.4,8
	s0.1-0.9,0.2-1.4H5C4.9,7.1,4.9,7.5,4.9,8c0,0.5,0,0.9,0.1,1.4H2.6z M3.2,10.8h2.1c0.2,0.9,0.5,1.7,1,2.5
	C4.9,12.8,3.8,11.9,3.2,10.8z M5.2,5.2H3.2c0.7-1.2,1.7-2,3-2.5C5.8,3.5,5.5,4.3,5.2,5.2z M8,13.5c-0.6-0.8-1-1.8-1.3-2.8h2.7
	C9,11.8,8.6,12.7,8,13.5z M9.6,9.4H6.4C6.3,8.9,6.3,8.5,6.3,8c0-0.5,0-0.9,0.1-1.4h3.3C9.7,7.1,9.7,7.5,9.7,8
	C9.7,8.5,9.7,8.9,9.6,9.4z M9.8,13.3c0.4-0.8,0.7-1.6,1-2.5h2.1C12.2,11.9,11.1,12.8,9.8,13.3z M11,9.4c0.1-0.5,0.1-0.9,0.1-1.4
	c0-0.5,0-0.9-0.1-1.4h2.4c0.1,0.4,0.2,0.9,0.2,1.4s-0.1,0.9-0.2,1.4H11z"/>
</svg>
